<?xml version="1.0" encoding="UTF-8" standalone="no"?><!DOCTYPE svg PUBLIC "-//W3C//DTD SVG 1.1//EN" "http://www.w3.org/Graphics/SVG/1.1/DTD/svg11.dtd"><svg width="100%" height="100%" viewBox="0 0 297 297" version="1.1" xmlns="http://www.w3.org/2000/svg" xmlns:xlink="http://www.w3.org/1999/xlink" xml:space="preserve" xmlns:serif="http://www.serif.com/" style="fill-rule:evenodd;clip-rule:evenodd;stroke-linejoin:round;stroke-miterlimit:1.41421;"><g><path d="M296.297,290.684l-8.67,-45.774c-1.109,-5.854 -3.955,-11.238 -8.168,-15.451l-133.177,-133.177l-19.696,19.696l99.945,99.945c2.929,2.93 2.929,7.678 0,10.608c-2.931,2.929 -7.678,2.928 -10.607,0l-99.945,-99.945l-19.696,19.696l133.177,133.177c4.213,4.213 9.597,7.059 15.451,8.168l45.774,8.67c1.561,0.296 3.166,-0.2 4.29,-1.323c1.122,-1.123 1.617,-2.729 1.322,-4.29Z" style="fill:#bbf6cf;fill-rule:nonzero;"/><path d="M161.224,36.602l-9.648,-9.647c-8.138,-8.138 -21.935,-5.756 -26.831,4.718l-19.884,42.536c-10.187,-10.187 -18.767,-18.767 -30.76,-30.76c1.905,-11.476 -1.559,-23.669 -10.411,-32.521c-14.57,-14.57 -38.193,-14.57 -52.763,0c-14.57,14.57 -14.57,38.193 0,52.763c8.853,8.853 21.046,12.316 32.521,10.411c11.995,11.995 20.57,20.57 30.76,30.76l-42.536,19.884c-10.435,4.878 -12.876,18.673 -4.718,26.831l9.647,9.647c6.496,6.496 17.028,6.496 23.524,0l101.099,-101.098c6.496,-6.496 6.496,-17.028 0,-23.524Z" style="fill:#bbf6cf;fill-rule:nonzero;"/></g></svg>