<?xml version="1.0" encoding="UTF-8" standalone="no"?><!DOCTYPE svg PUBLIC "-//W3C//DTD SVG 1.1//EN" "http://www.w3.org/Graphics/SVG/1.1/DTD/svg11.dtd"><svg width="100%" height="100%" viewBox="0 0 282 282" version="1.1" xmlns="http://www.w3.org/2000/svg" xmlns:xlink="http://www.w3.org/1999/xlink" xml:space="preserve" xmlns:serif="http://www.serif.com/" style="fill-rule:evenodd;clip-rule:evenodd;stroke-linejoin:round;stroke-miterlimit:1.41421;"><g><path d="M152.429,113.113c0,-1.699 -1.378,-3.077 -3.077,-3.077l-18.846,0c-1.699,0 -3.077,1.378 -3.077,3.077l0,13.526l-13.526,0c-1.699,0 -3.077,1.378 -3.077,3.077l0,18.846c0,1.699 1.378,3.077 3.077,3.077l13.526,0l0,13.525c0,1.699 1.378,3.077 3.077,3.077l18.846,0c1.699,0 3.077,-1.378 3.077,-3.077l0,-13.525l13.525,0c1.699,0 3.077,-1.378 3.077,-3.077l0,-18.846c0,-1.699 -1.378,-3.077 -3.077,-3.077l-13.525,0l0,-13.526Z" style="fill:#bbf6cf;fill-rule:nonzero;"/><path d="M274.673,13.952c0.566,-4.828 -1.721,-9.545 -5.859,-12.095c-4.137,-2.549 -9.379,-2.47 -13.438,0.207c-10.42,6.872 -35.07,19.868 -53.782,19.868c-24.216,0 -35.566,-6.189 -44.688,-11.161c-4.053,-2.21 -7.882,-4.297 -12.265,-5.66c-2.418,-0.752 -5.008,-0.752 -7.426,0c-4.383,1.363 -8.212,3.45 -12.265,5.66c-9.121,4.973 -20.472,11.161 -44.687,11.161c-18.712,0 -43.362,-12.996 -53.782,-19.868c-4.058,-2.677 -9.3,-2.756 -13.438,-0.207c-4.139,2.55 -6.425,7.267 -5.859,12.095l14.963,127.921c7.04,60.191 46.319,111.687 102.507,134.391l11.591,4.684c1.503,0.606 3.093,0.91 4.684,0.91c1.591,0 3.181,-0.304 4.684,-0.91l11.59,-4.684c56.189,-22.704 95.468,-74.199 102.508,-134.391l14.962,-127.921Zm-186.364,124.164c0,-28.464 23.156,-51.62 51.62,-51.62c28.464,0 51.62,23.156 51.62,51.62c0,28.464 -23.156,51.62 -51.62,51.62c-28.464,0 -51.62,-23.156 -51.62,-51.62Zm146.571,0.853c-5.979,51.11 -39.332,94.837 -87.043,114.115l-6.908,2.792l0,-41.165c41.787,-0.54 75.62,-34.682 75.62,-76.595c0,-41.913 -33.833,-76.055 -75.62,-76.595l0,-30.938c1.23,0.623 2.575,1.355 4.011,2.139c10.38,5.659 26.066,14.211 56.654,14.211c15.831,0 32.553,-5.888 45.438,-11.857l-12.152,103.893Z" style="fill:#bbf6cf;fill-rule:nonzero;"/></g></svg>